:version 1.10
:name ASF
:units
  mass 1
  length 1
  angle deg
:documentation
  ASF file generated by Kaydara
:root
  axis xyz
  order  tx ty tz rx ry rz
  position 0 0 0
  orientation 0 0 0
:bonedata
  begin
    id 1
    name lfemurDummy
    direction 0.61522 -0.761478 0.204097
    length 5.68318
    axis 0 -0 0 xyz
  end
  begin
    id 2
    name lfemur
    direction 0.34202 -0.939693 -5.84747e-008
    length 16.9147
    axis 0 -0 20 xyz
    dof rx ry rz
    limits( -inf , inf )
( -inf , inf )
( -inf , inf )

  end
  begin
    id 3
    name ltibia
    direction 0.34202 -0.939693 1.20839e-009
    length 18.0532
    axis 0 -0 20 xyz
    dof rz ry rx
    limits( -inf , inf )
( -inf , inf )
( -inf , inf )

  end
  begin
    id 4
    name lfoot
    direction 0.0841971 -0.23133 0.969225
    length 5.23822
    axis -90 7.62852e-016 20 xyz
    dof ry rx rz
    limits( -inf , inf )
( -inf , inf )
( -inf , inf )

  end
  begin
    id 5
    name ltoes
    direction 0 0 0
    length 0
    axis 0 0 0 xyz
    dof rz ry rx
    limits( -inf , inf )
( -inf , inf )
( -inf , inf )

  end
  begin
    id 6
    name rfemurDummy
    direction -0.625247 -0.75382 0.202044
    length 5.74091
    axis 0 -0 0 xyz
  end
  begin
    id 7
    name rfemur
    direction -0.34202 -0.939693 -1.47013e-008
    length 16.4922
    axis 0 -0 -20 xyz
    dof rx ry rz
    limits( -inf , inf )
( -inf , inf )
( -inf , inf )

  end
  begin
    id 8
    name rtibia
    direction -0.34202 -0.939693 -7.74345e-010
    length 18.2421
    axis 0 -0 -20 xyz
    dof rz ry rx
    limits( -inf , inf )
( -inf , inf )
( -inf , inf )

  end
  begin
    id 9
    name rfoot
    direction -0.124331 -0.341598 0.931586
    length 5.45787
    axis -90 -7.62852e-016 -20 xyz
    dof ry rx rz
    limits( -inf , inf )
( -inf , inf )
( -inf , inf )

  end
  begin
    id 10
    name rtoes
    direction 0 0 0
    length 0
    axis 0 0 0 xyz
    dof rz ry rx
    limits( -inf , inf )
( -inf , inf )
( -inf , inf )

  end
  begin
    id 11
    name lowerbackDummy
    direction 0 0 0
    length 0
    axis 0 -0 0 xyz
  end
  begin
    id 12
    name lowerback
    direction -0.0218484 0.994884 -0.0986304
    length 4.45607
    axis 0 -0 0 xyz
    dof rx ry rz
    limits( -inf , inf )
( -inf , inf )
( -inf , inf )

  end
  begin
    id 13
    name upperback
    direction -0.00973057 0.999717 -0.0217111
    length 4.47449
    axis 0 -0 0 xyz
    dof rx ry rz
    limits( -inf , inf )
( -inf , inf )
( -inf , inf )

  end
  begin
    id 14
    name thorax
    direction -0.000928171 0.999699 0.0245198
    length 4.50973
    axis 0 -0 0 xyz
    dof rx ry rz
    limits( -inf , inf )
( -inf , inf )
( -inf , inf )

  end
  begin
    id 15
    name rclavicle
    direction -0.9009 0.425937 -0.0834055
    length 7.28587
    axis 0 -0 0 xyz
    dof rx ry rz
    limits( -inf , inf )
( -inf , inf )
( -inf , inf )

  end
  begin
    id 16
    name rhumerus
    direction -1 -2.23604e-007 -1.42637e-007
    length 13.5704
    axis 180 30 90 xyz
    dof rx ry rz
    limits( -inf , inf )
( -inf , inf )
( -inf , inf )

  end
  begin
    id 17
    name rradius
    direction -1 5.68281e-008 -4.4952e-007
    length 8.06782
    axis 180 30 90 xyz
    dof rz ry rx
    limits( -inf , inf )
( -inf , inf )
( -inf , inf )

  end
  begin
    id 18
    name rwrist
    direction -1 1.51393e-007 1.38143e-007
    length 4.03391
    axis -90 -90 0 xyz
    dof rz rx ry
    limits( -inf , inf )
( -inf , inf )
( -inf , inf )

  end
  begin
    id 19
    name rthumb
    direction 0 0 0
    length 0
    axis 0 0 0 xyz
    dof ry rx rz
    limits( -inf , inf )
( -inf , inf )
( -inf , inf )

  end
  begin
    id 20
    name rhand
    direction -1 -3.34077e-007 -5.59631e-007
    length 1.29744
    axis -90 -90 0 xyz
    dof ry rx rz
    limits( -inf , inf )
( -inf , inf )
( -inf , inf )

  end
  begin
    id 21
    name rfingers
    direction 0 0 0
    length 0
    axis 0 0 0 xyz
    dof rz ry rx
    limits( -inf , inf )
( -inf , inf )
( -inf , inf )

  end
  begin
    id 22
    name lclavicle
    direction 0.940017 0.332249 -0.0773232
    length 8.29589
    axis 0 -0 0 xyz
    dof rx ry rz
    limits( -inf , inf )
( -inf , inf )
( -inf , inf )

  end
  begin
    id 23
    name lhumerus
    direction 1 7.41158e-008 -1.44768e-008
    length 12.0042
    axis 180 -30 -90 xyz
    dof rx ry rz
    limits( -inf , inf )
( -inf , inf )
( -inf , inf )

  end
  begin
    id 24
    name lradius
    direction 1 -1.32972e-007 3.10821e-007
    length 8.1902
    axis 180 -30 -90 xyz
    dof rz ry rx
    limits( -inf , inf )
( -inf , inf )
( -inf , inf )

  end
  begin
    id 25
    name lwrist
    direction 1 3.08957e-007 4.01394e-007
    length 4.09509
    axis -90 90 0 xyz
    dof rz rx ry
    limits( -inf , inf )
( -inf , inf )
( -inf , inf )

  end
  begin
    id 26
    name lthumb
    direction 0 0 0
    length 0
    axis 0 0 0 xyz
    dof ry rx rz
    limits( -inf , inf )
( -inf , inf )
( -inf , inf )

  end
  begin
    id 27
    name lhand
    direction 1 -1.64125e-007 -6.99514e-007
    length 1.37229
    axis -90 90 0 xyz
    dof ry rx rz
    limits( -inf , inf )
( -inf , inf )
( -inf , inf )

  end
  begin
    id 28
    name lfingers
    direction 0 0 0
    length 0
    axis 0 0 0 xyz
    dof rz ry rx
    limits( -inf , inf )
( -inf , inf )
( -inf , inf )

  end
  begin
    id 29
    name lowerneck
    direction -0.030798 0.998024 0.0547665
    length 3.93918
    axis 0 -0 0 xyz
    dof rx ry rz
    limits( -inf , inf )
( -inf , inf )
( -inf , inf )

  end
  begin
    id 30
    name upperneck
    direction 0.0531588 0.996611 -0.0627736
    length 3.95491
    axis 0 -0 0 xyz
    dof rx ry rz
    limits( -inf , inf )
( -inf , inf )
( -inf , inf )

  end
  begin
    id 31
    name head
    direction 0 0 0
    length 0
    axis 0 0 0 xyz
    dof rx ry rz
    limits( -inf , inf )
( -inf , inf )
( -inf , inf )

  end
:hierarchy
  begin
    root lfemurDummy rfemurDummy lowerbackDummy
    lfemurDummy lfemur
    lfemur ltibia
    ltibia lfoot
    lfoot ltoes
    rfemurDummy rfemur
    rfemur rtibia
    rtibia rfoot
    rfoot rtoes
    lowerbackDummy lowerback
    lowerback upperback
    upperback thorax
    thorax rclavicle lclavicle lowerneck
    rclavicle rhumerus
    rhumerus rradius
    rradius rwrist
    rwrist rthumb rhand
    rhand rfingers
    lclavicle lhumerus
    lhumerus lradius
    lradius lwrist
    lwrist lthumb lhand
    lhand lfingers
    lowerneck upperneck
    upperneck head
  end

:SAMPLES-PER-SECOND 30
:FULLY-SPECIFIED
:DEGREES
10
root  10.84195535 37.5648889 -8.444888948 -13.92479992 -48.66070175 11.11559963
lowerback  11.37959957 2.082859993 -3.877449989
upperback  4.364230156 2.254980087 -0.1089640036
thorax  -1.959980011 1.061920047 1.777209997
lowerneck  -0.5797410011 5.673500061 -5.143859863
upperneck  8.949529648 7.138450146 7.694210052
head  2.494110107 3.596299887 3.579659939
lclavicle  0 -9.442270133e-015 7.951389973e-016
lhumerus  16.99080086 -5.983650208 64.31289673
lradius  2.582165276e-031 -2.408581849e-031 136.9920044
lwrist  -7.062250077e-031 -1.765562519e-031 14.40670013
lhand  -1.496451383e-031 -27.76390076 20.11240005
lfingers  90 7.125020027 -90
lthumb  89.89689403 5.08795885 91.16245106
rclavicle  0 -9.442270133e-015 7.951389973e-016
rhumerus  8.874879837 14.71469975 -75.11660004
rradius  -2.780324169e-031 2.176842106e-031 141.9409943
rwrist  7.062250077e-031 2.206953149e-031 -24.66950035
rhand  -7.920061211e-032 -33.2840004 9.303460121
rfingers  -90 -7.125020027 -90
rthumb  -92.93752616 -24.25625642 -97.11982154
rfemur  -13.95890045 13.09589958 2.313829899
rtibia  -0 0 65.56749725
rfoot  -0 -25.83530045 -10.4520998
rtoes  5.373923086 19.29304026 -105.8922705
lfemur  -23.21299934 -0.6363949776 -10.7670002
ltibia  -0 0 54.7254982
lfoot  4.550206623e-032 -14.05920029 1.407189965
ltoes  -4.250644065 -19.5611806 -102.515957
11
root  10.8085332 37.76911037 -8.614444733 -13.2592001 -48.69060135 10.73429966
lowerback  11.12530041 2.058769941 -3.735249996
upperback  4.322649956 2.249419928 -0.1807830036
thorax  -1.856809974 1.060510039 1.630589962
lowerneck  -0.2699199915 5.775279999 -5.236939907
upperneck  9.316900253 7.235610008 7.802569866
head  2.546689987 3.637379885 3.63402009
lclavicle  0 -9.442270133e-015 7.951389973e-016
lhumerus  17.24570084 -6.23913002 64.38929749
lradius  2.586993996e-031 -2.403394704e-031 137.1069946
lwrist  -7.062250077e-031 -0 14.22990036
lhand  -1.496451383e-031 -27.76390076 20.11240005
lfingers  90 7.125020027 -90
lthumb  89.89689403 5.08795885 91.16245106
rclavicle  0 -9.442270133e-015 7.951389973e-016
rhumerus  9.120400429 14.88669968 -75.54720306
rradius  -2.780780354e-031 2.176259328e-031 141.9530029
rwrist  0 1.765562519e-031 -24.40239906
rhand  -7.920061211e-032 -33.2840004 9.303460121
rfingers  -90 -7.125020027 -90
rthumb  -92.93752616 -24.25625642 -97.11982154
rfemur  -14.26179981 13.04039955 2.548640013
rtibia  -0 0 64.87539673
rfoot  -0 -24.79929924 -9.557120323
rtoes  5.373923086 19.29304026 -105.8922705
lfemur  -23.30870056 -1.10690999 -10.35849953
ltibia  -0 0 53.7942009
lfoot  4.529372239e-032 -12.96500015 1.94430995
ltoes  -4.250644065 -19.5611806 -102.515957
12
root  10.78257748 37.98866572 -8.787399953 -12.49380016 -48.75669861 10.26589966
lowerback  10.94110012 2.05934 -3.491760015
upperback  4.243370056 2.283119917 -0.2427179962
thorax  -1.82983005 1.08118999 1.429710031
lowerneck  -0.003143650014 5.857870102 -5.286600113
upperneck  9.674460411 7.312310219 7.843959808
head  2.609329939 3.668370008 3.659009933
lclavicle  0 -9.442270133e-015 7.951389973e-016
lhumerus  17.47520065 -6.504260063 64.5134964
lradius  2.590347322e-031 -2.399780155e-031 137.1869965
lwrist  -7.062250077e-031 -0 14.04469967
lhand  -1.496451383e-031 -27.76390076 20.11240005
lfingers  90 7.125020027 -90
lthumb  89.89689403 5.08795885 91.16245106
rclavicle  0 -9.442270133e-015 7.951389973e-016
rhumerus  9.331439972 14.86620045 -75.88749695
rradius  -2.783247544e-031 2.173103114e-031 142.0180054
rwrist  7.062250077e-031 1.765562519e-031 -24.18040085
rhand  -7.920061211e-032 -33.2840004 9.303460121
rfingers  -90 -7.125020027 -90
rthumb  -92.93752616 -24.25625642 -97.11982154
rfemur  -14.57960033 13.08670044 2.789210081
rtibia  -0 0 64.09079742
rfoot  -0 -23.74180031 -8.400730133
rtoes  5.373923086 19.29304026 -105.8922705
lfemur  -23.42379951 -1.517830014 -9.844670296
ltibia  -0 0 52.76240158
lfoot  4.506457942e-032 -11.63210011 2.341789961
ltoes  -4.250644065 -19.5611806 -102.515957
13
root  10.75911109 38.21511156 -8.960422005 -11.90390015 -48.74420166 10.03320026
lowerback  10.86149979 2.051249981 -3.414829969
upperback  4.113699913 2.280529976 -0.3689909875
thorax  -1.913429976 1.085000038 1.256070018
lowerneck  0.2301249951 5.94535017 -5.170700073
upperneck  10.13339996 7.392089844 7.806749821
head  2.72100997 3.704289913 3.632420063
lclavicle  0 -9.442270133e-015 7.951389973e-016
lhumerus  17.55430031 -6.761290073 64.57060242
lradius  2.594866268e-031 -2.394893127e-031 137.2949982
lwrist  -1.412450015e-030 -0 13.92469978
lhand  -1.496451383e-031 -27.76390076 20.11240005
lfingers  90 7.125020027 -90
lthumb  89.89689403 5.08795885 91.16245106
rclavicle  0 -9.442270133e-015 7.951389973e-016
rhumerus  9.537929535 14.74580002 -76.21890259
rradius  -2.786430474e-031 2.169020344e-031 142.102005
rwrist  7.062250077e-031 4.413906298e-032 -23.99090004
rhand  -7.920061211e-032 -33.2840004 9.303460121
rfingers  -90 -7.125020027 -90
rthumb  -92.93752616 -24.25625642 -97.11982154
rfemur  -14.86709976 13.13070011 2.767839909
rtibia  -0 0 63.22769928
rfoot  -9.56186057e-032 -22.59679985 -6.944699764
rtoes  5.373923086 19.29304026 -105.8922705
lfemur  -23.52540016 -1.958649993 -9.520019531
ltibia  -0 0 51.64149857
lfoot  4.485025242e-032 -10.21700001 2.810529947
ltoes  -4.250644065 -19.5611806 -102.515957
14
root  10.74128864 38.44266576 -9.133200007 -11.06830025 -48.74399948 9.524629593
lowerback  10.72729969 1.995460033 -3.171619892
upperback  4.02354002 2.236059904 -0.4359120131
thorax  -1.920629978 1.066849947 1.058609962
lowerneck  0.4200519919 6.007840157 -5.086219788
upperneck  10.57660007 7.445519924 7.729199886
head  2.838429928 3.725430012 3.599489927
lclavicle  0 -9.442270133e-015 7.951389973e-016
lhumerus  17.66609955 -6.86111021 64.57820129
lradius  2.600334982e-031 -2.388954168e-031 137.4259949
lwrist  -1.412450015e-030 -1.765562519e-031 13.85099983
lhand  -1.496451383e-031 -27.76390076 20.11240005
lfingers  90 7.125020027 -90
lthumb  89.89689403 5.08795885 91.16245106
rclavicle  0 -9.442270133e-015 7.951389973e-016
rhumerus  9.904769897 14.63099957 -76.49749756
rradius  -2.789758465e-031 2.164738262e-031 142.1900024
rwrist  7.062250077e-031 8.827812596e-032 -23.71229935
rhand  -7.920061211e-032 -33.2840004 9.303460121
rfingers  -90 -7.125020027 -90
rthumb  -92.93752616 -24.25625642 -97.11982154
rfemur  -15.20750046 13.11229992 2.906339884
rtibia  -0 0 62.29759979
rfoot  -9.479220474e-032 -21.36470032 -5.431139946
rtoes  5.373923086 19.29304026 -105.8922705
lfemur  -23.65060043 -2.355920076 -8.98789978
ltibia  -0 0 50.45470047
lfoot  4.46788619e-032 -8.915399551 3.201060057
ltoes  -4.250644065 -19.5611806 -102.515957
15
root  10.72442212 38.66755568 -9.302800096 -10.33129978 -48.78710175 9.033900261
lowerback  10.52799988 1.937540054 -2.784039974
upperback  4.070179939 2.202889919 -0.5790089965
thorax  -1.742830038 1.051079988 0.7047790289
lowerneck  0.5813099742 6.070919991 -5.073190212
upperneck  10.83899975 7.505449772 7.741270065
head  2.893779993 3.7509799 3.60442996
lclavicle  0 -9.442270133e-015 7.951389973e-016
lhumerus  18.00060081 -6.850830078 64.45320129
lradius  2.605416273e-031 -2.383411437e-031 137.5480042
lwrist  -7.062250077e-031 -0 13.83049965
lhand  -1.496451383e-031 -27.76390076 20.11240005
lfingers  90 7.125020027 -90
lthumb  89.89689403 5.08795885 91.16245106
rclavicle  0 -9.442270133e-015 7.951389973e-016
rhumerus  10.4968996 14.41409969 -76.77559662
rradius  -2.794663099e-031 2.158402696e-031 142.3200073
rwrist  7.062250077e-031 -8.827812596e-032 -23.35490036
rhand  -7.920061211e-032 -33.2840004 9.303460121
rfingers  -90 -7.125020027 -90
rthumb  -92.93752616 -24.25625642 -97.11982154
rfemur  -15.45629978 13.06949997 3.027990103
rtibia  -0 0 61.30849838
rfoot  -9.401861987e-032 -20.12520027 -3.852309942
rtoes  5.373923086 19.29304026 -105.8922705
lfemur  -23.63540077 -2.819789886 -8.445630074
ltibia  -0 0 49.21310043
lfoot  4.4534019e-032 -7.636380196 3.574620008
ltoes  -4.250644065 -19.5611806 -102.515957
16
root  10.70500021 38.89777717 -9.456400233 -9.958060265 -48.85409927 8.879190445
lowerback  10.4605999 1.938619971 -2.758729935
upperback  4.118150234 2.207999945 -0.6259750128
thorax  -1.653620005 1.050362587 0.644513011
lowerneck  0.6769329906 6.150889874 -5.238659859
upperneck  11.09300041 7.601480007 7.706299782
head  2.951550007 3.787450075 3.628609896
lclavicle  0 -9.442270133e-015 7.951389973e-016
lhumerus  18.08919907 -6.743480206 64.62290192
lradius  2.607744527e-031 -2.380863817e-031 137.6040039
lwrist  -7.062250077e-031 -1.765562519e-031 13.89850044
lhand  -1.496451383e-031 -27.76390076 20.11240005
lfingers  90 7.125020027 -90
lthumb  89.89689403 5.08795885 91.16245106
rclavicle  0 -9.442270133e-015 7.951389973e-016
rhumerus  11.13669968 14.23340034 -76.67790222
rradius  -2.801617606e-031 2.149368007e-031 142.5050049
rwrist  1.412450015e-030 1.765562519e-031 -23.19129944
rhand  -7.920061211e-032 -33.2840004 9.303460121
rfingers  -90 -7.125020027 -90
rthumb  -92.93752616 -24.25625642 -97.11982154
rfemur  -15.57499981 13.01159954 2.864289999
rtibia  -0 0 60.27899933
rfoot  -6.99521704e-032 -18.82939911 -2.0618999
rtoes  5.373923086 19.29304026 -105.8922705
lfemur  -23.41670036 -3.473129988 -8.162449837
ltibia  -0 0 47.96590042
lfoot  4.442594521e-032 -6.514860153 3.999840021
ltoes  -4.250644065 -19.5611806 -102.515957
